<?xml version="1.0" encoding="utf-8"?>
<!-- Generator: Adobe Illustrator 25.0.0, SVG Export Plug-In . SVG Version: 6.00 Build 0)  -->
<svg version="1.1" id="_图层_1" xmlns="http://www.w3.org/2000/svg" xmlns:xlink="http://www.w3.org/1999/xlink" x="0px" y="0px"
	 viewBox="0 0 595.3 841.9" style="enable-background:new 0 0 595.3 841.9;" xml:space="preserve">
<style type="text/css">
	.st0{fill:#FFFFFF;}
</style>
<path class="st0" d="M379.6,428.7"/>
<g>
	<g>
		<path class="st0" d="M338.9,418.6c-0.7-0.4-1.2-0.9-1.6-1.6c-0.4-0.6-0.6-1.4-0.6-2.1s0.2-1.5,0.6-2.2c0.4-0.7,0.9-1.2,1.6-1.6
			c0.7-0.4,1.4-0.6,2.1-0.6s1.5,0.2,2.1,0.6s1.2,0.9,1.6,1.6c0.4,0.7,0.6,1.4,0.6,2.2s-0.2,1.5-0.6,2.1c-0.4,0.6-0.9,1.2-1.6,1.6
			c-0.7,0.4-1.4,0.6-2.2,0.6S339.5,419,338.9,418.6L338.9,418.6z M342.5,417.4c0.4-0.2,0.7-0.6,1-1s0.4-0.9,0.4-1.5s-0.1-1-0.4-1.5
			s-0.6-0.8-1-1s-0.9-0.4-1.4-0.4s-1,0.1-1.4,0.4c-0.4,0.2-0.8,0.6-1,1s-0.4,0.9-0.4,1.5s0.1,1,0.4,1.5c0.2,0.4,0.6,0.8,1,1
			c0.4,0.2,0.9,0.4,1.4,0.4S342.1,417.6,342.5,417.4z"/>
		<path class="st0" d="M347.8,418.7c-0.5-0.3-0.8-0.7-1.1-1.1s-0.4-1-0.4-1.6s0.1-1.1,0.4-1.6c0.3-0.5,0.6-0.9,1.1-1.1
			s1-0.4,1.5-0.4s1,0.2,1.4,0.5s0.7,0.7,0.9,1.2s0.3,1,0.3,1.4s-0.1,1-0.3,1.4s-0.5,0.9-0.9,1.2s-0.9,0.5-1.4,0.5
			S348.3,419,347.8,418.7z M350.4,417.6c0.3-0.1,0.5-0.4,0.6-0.6c0.1-0.3,0.2-0.6,0.2-1s-0.1-0.7-0.2-1c-0.1-0.3-0.4-0.5-0.6-0.6
			c-0.3-0.1-0.6-0.2-0.9-0.2c-0.3,0-0.5,0.1-0.8,0.2s-0.4,0.4-0.6,0.6c-0.1,0.3-0.2,0.6-0.2,1s0.1,0.7,0.2,0.9s0.3,0.5,0.5,0.6
			c0.2,0.1,0.5,0.2,0.8,0.2C349.8,417.9,350.1,417.8,350.4,417.6L350.4,417.6z M352.5,419C352.5,419,352.5,419,352.5,419h-1.4
			c0,0,0,0,0,0c0,0,0,0,0,0v-1.9l0.3-1l-0.3-1.1v-1.9c0,0,0,0,0,0c0,0,0,0,0,0h1.4c0,0,0,0,0,0s0,0,0,0V419
			C352.5,419,352.5,419,352.5,419L352.5,419z"/>
		<path class="st0" d="M354.3,415.1c0.3-0.6,0.7-1.2,1.1-1.6c0.5-0.4,1-0.6,1.6-0.6c0.4,0,0.7,0.1,1,0.3s0.5,0.5,0.7,1
			s0.3,0.9,0.3,1.5v3.3c0,0,0,0,0,0s0,0,0,0h-1.4c0,0,0,0,0,0s0,0,0,0v-3.3c0-0.3,0-0.6-0.1-0.8c-0.1-0.2-0.2-0.3-0.4-0.4
			s-0.3-0.1-0.5-0.1c-0.3,0-0.5,0.1-0.7,0.2c-0.2,0.1-0.4,0.3-0.5,0.6c-0.1,0.3-0.2,0.6-0.2,1.1l-1.4,1
			C353.9,416.4,354.1,415.7,354.3,415.1L354.3,415.1z M355.3,419C355.3,419,355.3,419,355.3,419h-1.4c0,0,0,0,0,0s0,0,0,0v-5.9
			c0,0,0,0,0,0s0,0,0,0h1.4c0,0,0,0,0,0s0,0,0,0V419C355.3,419,355.3,419,355.3,419z M358.1,415.1c0.3-0.6,0.7-1.2,1.1-1.6
			c0.5-0.4,1-0.6,1.6-0.6c0.4,0,0.7,0.1,1,0.3s0.5,0.5,0.7,1c0.2,0.4,0.3,0.9,0.3,1.5v3.3c0,0,0,0,0,0c0,0,0,0,0,0h-1.4c0,0,0,0,0,0
			c0,0,0,0,0,0v-3.3c0-0.3,0-0.6-0.1-0.8s-0.2-0.3-0.4-0.4s-0.3-0.1-0.5-0.1c-0.3,0-0.5,0.1-0.7,0.2c-0.2,0.1-0.4,0.3-0.5,0.6
			c-0.1,0.3-0.2,0.6-0.2,1.1l-1.4,1C357.7,416.4,357.8,415.7,358.1,415.1L358.1,415.1z"/>
		<path class="st0" d="M365.5,418.7c-0.5-0.3-0.8-0.7-1.1-1.1s-0.4-1-0.4-1.6s0.1-1.1,0.4-1.6c0.3-0.5,0.6-0.9,1.1-1.1
			s1-0.4,1.5-0.4s1,0.2,1.4,0.5s0.7,0.7,0.9,1.2s0.3,1,0.3,1.4s-0.1,1-0.3,1.4s-0.5,0.9-0.9,1.2s-0.9,0.5-1.4,0.5
			S366,419,365.5,418.7z M368.1,417.6c0.3-0.1,0.5-0.4,0.6-0.6c0.1-0.3,0.2-0.6,0.2-1s-0.1-0.7-0.2-1c-0.1-0.3-0.4-0.5-0.6-0.6
			c-0.3-0.1-0.6-0.2-0.9-0.2c-0.3,0-0.5,0.1-0.8,0.2s-0.4,0.4-0.6,0.6c-0.1,0.3-0.2,0.6-0.2,1s0.1,0.7,0.2,0.9s0.3,0.5,0.5,0.6
			c0.2,0.1,0.5,0.2,0.8,0.2C367.5,417.9,367.8,417.8,368.1,417.6L368.1,417.6z M370.3,419C370.3,419,370.3,419,370.3,419h-1.4
			c0,0,0,0,0,0c0,0,0,0,0,0v-1.9l0.3-1l-0.3-1.1v-1.9c0,0,0,0,0,0c0,0,0,0,0,0h1.4c0,0,0,0,0,0s0,0,0,0V419
			C370.3,419,370.3,419,370.3,419L370.3,419z"/>
		<path class="st0" d="M372,415c0.3-0.6,0.6-1.2,1.1-1.5s1.1-0.6,1.7-0.6c0,0,0,0,0,0c0,0,0,0,0,0v1.4c0,0,0,0,0,0c0,0,0,0,0,0
			c-0.4,0-0.8,0.1-1,0.2c-0.3,0.1-0.5,0.3-0.6,0.6s-0.2,0.6-0.2,1.1l-1.4,1C371.6,416.4,371.8,415.7,372,415L372,415z M373.1,419
			C373.1,419,373.1,419,373.1,419h-1.4c0,0,0,0,0,0s0,0,0,0v-5.9c0,0,0,0,0,0s0,0,0,0h1.4c0,0,0,0,0,0s0,0,0,0V419
			C373.1,419,373.1,419,373.1,419z"/>
		<path class="st0" d="M379.9,413.1C379.9,413.1,379.9,413.1,379.9,413.1h1.4c0,0,0,0,0,0s0,0,0,0v3c0,0.6-0.1,1.1-0.4,1.6
			s-0.6,0.8-1,1.1c-0.4,0.3-0.9,0.4-1.5,0.4s-1-0.1-1.4-0.4s-0.7-0.6-0.9-1.1c-0.2-0.5-0.3-1-0.3-1.6v-3c0,0,0,0,0,0s0,0,0,0h1.4
			c0,0,0,0,0,0s0,0,0,0v3c0,0.4,0,0.7,0.1,1c0.1,0.2,0.2,0.4,0.4,0.5c0.2,0.1,0.4,0.2,0.7,0.2s0.5-0.1,0.7-0.2
			c0.2-0.1,0.4-0.3,0.5-0.5s0.1-0.6,0.1-1L379.9,413.1C379.9,413.1,379.9,413.1,379.9,413.1L379.9,413.1z"/>
	</g>
	<path class="st0" d="M368.5,386.3c-4.6,0-8.5,2.9-10,6.9h3.7c1.3-2.1,3.6-3.5,6.3-3.5c4,0,7.3,3.3,7.3,7.3s-3.3,7.3-7.3,7.3
		c-2.6,0-5-1.4-6.3-3.5h-3.7c1.5,4,5.4,6.9,10,6.9c5.9,0,10.7-4.8,10.7-10.7S374.3,386.3,368.5,386.3z"/>
	<g>
		<path class="st0" d="M278.6,418.1c-5-2-7.4-8.8-5.4-15.8c2-6.9,7.7-11.4,12.9-10.5l0.7-2.5c-1.2-0.3-2.5-0.4-3.8-0.4
			c-9,0-16.3,7.3-16.3,16.3c0,7.1,4.6,13.2,11,15.5L278.6,418.1L278.6,418.1z"/>
		<path class="st0" d="M288.5,389.8l-0.7,2.5c5,2,7.4,8.8,5.4,15.8c-2,6.9-7.7,11.4-12.9,10.5l-0.8,2.6c1.2,0.3,2.5,0.4,3.8,0.4
			c9,0,16.3-7.3,16.3-16.3C299.5,398.1,294.9,392,288.5,389.8L288.5,389.8z"/>
	</g>
	<path class="st0" d="M331.1,388.6c-0.6,0-1.2,0.5-1.3,1.1c-0.4,1.7-1.1,4.9-1.6,6.7c-1.5,4.7-3.4,9.3-6,13.5c-1.3,2-2.8,4-4.6,5.5
		c-0.5,0.4-1,0.8-1.6,1.1c-1.3,1-2.7,1.6-4.2,1.6c-7.5,0.3-0.9-21.5,1-27.3v0c0.3-1.1-0.5-2.2-1.7-2.2H308c-0.8,0-1.5,0.5-1.7,1.2
		c-1,3.3-1.9,6.6-2.7,10c-0.9,3.9-1.6,8-1.3,12c0.1,3.2,1.2,7.2,4.5,8.6c4.3,1.9,9.5,0,12.5-3.2c2.7-2.7,4.9-6,6.8-9.7
		c-2.9,11.3-6.8,22.2-12.9,30.3c-2.4,2.9-5.2,6.3-9.1,6.6c-0.4,0-0.8,0.3-0.9,0.8l-0.1,0.6c-0.1,0.6,0.3,1.1,0.9,1.2c0,0,0,0,0,0
		c8.7,0.3,17-11.6,20.5-18.5c6.2-12,9.5-25.2,11.8-38.5c0.1-0.8-0.5-1.6-1.3-1.6L331.1,388.6L331.1,388.6z"/>
	<path class="st0" d="M361.2,396.9c0-0.6,0.1-1.1,0.2-1.7l0,0h-5.1v-19.9c0-0.7-0.5-1.4-1.2-1.6c-0.7-0.2-1.5,0-1.9,0.6L338,395.9
		c-0.4,0.5-0.4,1.2-0.1,1.8s0.9,0.9,1.5,0.9h13.6v8.8c0,0.9,0.8,1.7,1.7,1.7s1.7-0.8,1.7-1.7v-8.8h5.1l0,0
		C361.2,398.1,361.2,397.5,361.2,396.9L361.2,396.9z M352.9,395.2h-10.3l10.3-14.6V395.2z"/>
	<path class="st0" d="M264.7,360.2c-0.5-3.7-1-7.4-2.6-10.9c-0.7-1.3-1.7-2.8-3.3-3.2l-0.8,2.4c4,3.3,1.5,30.2,0.6,36.2
		c-1.9,11.9-4.1,27.5-9.9,39.8l0,0c0,0-0.7,1.7-2.1,4.1c-1.4,2.4-2.9,4.6-4.6,6.6c-2.3,2.7-5.1,5.3-8.5,7.2c0,0,0,0,0,0
		c-1.9,1.2-3.6,1.8-5.1,2c-0.1,0-0.2,0-0.2,0l-0.7,3.2c1.3-0.1,2.8-0.2,4.1-0.7c1.4-0.5,2.8-1.2,4.1-1.9c5.1-2.7,9.7-6.4,13.3-10.9
		c3.2-4,5.6-8.5,7.5-13.2c1.9-4.7,3.5-9.5,4.6-14.4c2.5-10.5,4.2-21.3,4.2-32.1C265.4,369.8,265.2,365,264.7,360.2L264.7,360.2z"/>
	<path class="st0" d="M270.2,390.1c-0.3-0.9-1.3-1.4-2.1-1c-11.5,3.9-21.4,10.7-28.9,16.2c-5.7,4.2-12.3,9.5-17.5,16
		c-3.5,4.5-7,11.4-6.3,17.2c0.4,3,1.8,5.4,4.1,7.2c1.6,1.2,3.5,1.9,5.7,2.1l0.9-3.1c-1.6-0.1-3.4-0.7-4.6-1.6
		c-1.6-1.3-2.6-2.9-2.8-4.9c-0.6-4.8,2.6-10.9,5.6-14.7c4.9-6.2,11.2-11.3,16.8-15.4c7.2-5.3,16.9-11.9,27.9-15.7
		C270,392,270.5,391,270.2,390.1L270.2,390.1z"/>
</g>
</svg>
